<svg width="36" height="36" viewBox="0 0 36 36" fill="none" xmlns="http://www.w3.org/2000/svg">
<g clip-path="url(#clip0_1_594)">
<path d="M5.92969 9V27C5.92969 27.5967 6.15851 28.169 6.56581 28.591C6.97312 29.0129 7.52555 29.25 8.10156 29.25H29.8203C30.1083 29.25 30.3845 29.1315 30.5882 28.9205C30.7918 28.7095 30.9062 28.4234 30.9062 28.125V12.375C30.9062 12.0766 30.7918 11.7905 30.5882 11.5795C30.3845 11.3685 30.1083 11.25 29.8203 11.25H8.10156C7.52555 11.25 6.97312 11.0129 6.56581 10.591C6.15851 10.169 5.92969 9.59674 5.92969 9ZM5.92969 9C5.92969 8.40326 6.15851 7.83097 6.56581 7.40901C6.97312 6.98705 7.52555 6.75 8.10156 6.75H26.5625" stroke="#AAAAAA" stroke-width="1.6875" stroke-linecap="round" stroke-linejoin="round"/>
<path d="M24.9336 21.9375C25.8332 21.9375 26.5625 21.182 26.5625 20.25C26.5625 19.318 25.8332 18.5625 24.9336 18.5625C24.034 18.5625 23.3047 19.318 23.3047 20.25C23.3047 21.182 24.034 21.9375 24.9336 21.9375Z" fill="#AAAAAA"/>
</g>
<defs>
<clipPath id="clip0_1_594">
<rect width="34.75" height="36" fill="white" transform="translate(0.5)"/>
</clipPath>
</defs>
</svg>
