<?xml version="1.0" encoding="UTF-8"?>
<svg version="1.1" xmlns="http://www.w3.org/2000/svg" width="241" height="210">
<path d="M0 0 C79.53 0 159.06 0 241 0 C241 69.3 241 138.6 241 210 C161.47 210 81.94 210 0 210 C0 140.7 0 71.4 0 0 Z " fill="#FDFDFD" transform="translate(0,0)"/>
<path d="M0 0 C1.26972404 -0.00012053 2.53944809 -0.00024107 3.84764862 -0.00036526 C7.26162656 -0.00058969 10.67556897 0.00517814 14.08953857 0.01224518 C17.30090229 0.01796822 20.51226461 0.01820982 23.72363281 0.0189209 C33.09635881 0.02415437 42.4690783 0.03811562 51.84179688 0.05102539 C83.27429688 0.08196289 83.27429688 0.08196289 115.34179688 0.11352539 C115.34179688 69.41352539 115.34179688 138.71352539 115.34179688 210.11352539 C83.34179688 210.11352539 83.34179688 210.11352539 78.34179688 206.11352539 C77.27198465 204.96383558 76.23516998 203.78241463 75.23632812 202.57055664 C72.27210766 199.10520544 69.15009208 195.83737186 65.91601562 192.62524414 C65.43834747 192.15079865 64.96067932 191.67635315 64.46853638 191.18753052 C62.99066312 189.72345275 61.51041283 188.26182226 60.02929688 186.80102539 C58.051125 184.84951266 56.07635231 182.89464847 54.10351562 180.93774414 C53.23686279 180.08269287 52.37020996 179.2276416 51.47729492 178.34667969 C49.34179687 176.11352539 49.34179687 176.11352539 47.34179688 173.11352539 C42.96333771 173.72732808 39.66732313 175.36037321 35.77929688 177.42602539 C16.16210476 187.49964909 -4.08870018 188.99118884 -25.65820312 185.11352539 C-25.65820312 178.51352539 -25.65820312 171.91352539 -25.65820312 165.11352539 C-23.49257812 165.59499023 -23.49257812 165.59499023 -21.28320312 166.08618164 C-1.14782788 170.08281291 19.30782124 166.28635377 36.62646484 155.29077148 C52.42381178 144.44892592 63.71127208 127.46288699 67.64648438 108.72680664 C71.25783247 87.83917566 67.51186201 67.74800889 55.35742188 50.25805664 C53.43167576 47.79116094 51.43355013 45.44049588 49.34179688 43.11352539 C48.82359375 42.50250977 48.30539063 41.89149414 47.77148438 41.26196289 C37.21802149 29.64785047 19.6362161 20.87982935 3.96142578 19.97631836 C-18.32700707 19.14487024 -37.18068971 23.30546848 -54.45898438 38.07055664 C-63.66491135 46.62242131 -69.99880934 56.46504092 -74.65820312 68.11352539 C-81.25820312 68.11352539 -87.85820313 68.11352539 -94.65820312 68.11352539 C-88.78314533 45.30447748 -73.65242596 25.16425962 -53.36523438 13.14868164 C-36.39738443 3.60511694 -19.39942783 -0.05964055 0 0 Z " fill="#020202" transform="translate(125.658203125,-0.113525390625)"/>
<path d="M0 0 C37.95 0 75.9 0 115 0 C115 59.07 115 118.14 115 179 C102 166 89 153 76 140 C77.35200786 135.89443012 78.82437498 131.88519864 80.4375 127.875 C90.03313521 103.05089356 89.18772217 77.71450295 78.625 53.4296875 C67.85560865 30.70005865 49.0069331 15.12798357 25.93359375 6.02734375 C17.40197252 3.03957227 9.01237806 1.51448615 0 1 C0 0.67 0 0.34 0 0 Z " fill="#FDFDFD" transform="translate(126,0)"/>
<path d="M0 0 C1.44700035 -0.00639748 1.44700035 -0.00639748 2.92323303 -0.01292419 C3.99025955 -0.01247101 5.05728607 -0.01201782 6.15664673 -0.0115509 C7.27363449 -0.01490952 8.39062225 -0.01826813 9.54145813 -0.02172852 C13.25515843 -0.03127224 16.96881381 -0.03318338 20.68252563 -0.03425598 C23.25223815 -0.03746634 25.82195048 -0.04083024 28.3916626 -0.04434204 C33.78712465 -0.05034199 39.18256872 -0.05222374 44.57803345 -0.05158997 C50.81791974 -0.05098932 57.05771954 -0.06153667 63.29758394 -0.07733363 C69.29421959 -0.09197516 75.29080822 -0.09557829 81.28746414 -0.09498024 C83.84162372 -0.09616366 86.39578387 -0.10060554 88.9499321 -0.10831261 C92.51760861 -0.11806902 96.08506063 -0.11525154 99.65274048 -0.10920715 C100.71571854 -0.11482666 101.77869659 -0.12044617 102.87388611 -0.12623596 C103.84419266 -0.12204147 104.81449921 -0.11784698 105.81420898 -0.11352539 C106.65819433 -0.11407016 107.50217968 -0.11461493 108.37174034 -0.1151762 C110.53408813 0.13371277 110.53408813 0.13371277 113.53408813 2.13371277 C113.17988037 8.00765827 111.4370752 11.17778391 107.53408813 15.38371277 C106.52016327 16.52614023 105.50715437 17.66938123 104.49502563 18.81340027 C103.73850708 19.65596375 103.73850708 19.65596375 102.96670532 20.51554871 C100.95564925 22.78706876 99.05838426 25.14341834 97.15908813 27.50871277 C92.92634996 32.71177178 88.54760825 37.7793548 84.13809204 42.83244324 C83.613927 43.4333075 83.08976196 44.03417175 82.54971313 44.65324402 C82.08855103 45.18022888 81.62738892 45.70721375 81.1522522 46.25016785 C80.61825806 46.87173767 80.08426392 47.4933075 79.53408813 48.13371277 C78.66147339 49.00294373 77.78885864 49.87217468 76.88980103 50.76774597 C73.6500155 54.68847046 73.80415734 58.55519157 73.82705688 63.46965027 C73.80437492 64.78867844 73.80437492 64.78867844 73.78123474 66.13435364 C73.73845737 68.92606956 73.72952955 71.71670217 73.72158813 74.50871277 C73.69843603 76.40848095 73.6730692 78.30822352 73.64541626 80.20793152 C73.57851543 84.85044392 73.55745558 89.48996375 73.53408813 94.13371277 C60.66408813 94.13371277 47.79408813 94.13371277 34.53408813 94.13371277 C34.59658813 75.32121277 34.59658813 75.32121277 34.68667603 69.45475769 C34.67042348 59.77762316 33.997982 53.52468419 26.87564087 46.31071472 C26.10292847 45.59230408 25.33021606 44.87389343 24.53408813 44.13371277 C23.45381061 42.8990441 22.38876327 41.65070813 21.34658813 40.38371277 C20.40996598 39.29962038 19.47247499 38.216278 18.53408813 37.13371277 C13.43536947 31.2111306 8.4288833 25.226713 3.53408813 19.13371277 C3.0816272 18.58763367 2.62916626 18.04155457 2.16299438 17.47892761 C0.73063125 15.75009637 -0.68125655 14.00608256 -2.09091187 12.25871277 C-2.54160034 11.72302673 -2.99228882 11.1873407 -3.45663452 10.63542175 C-5.51847151 8.03877797 -6.49806018 6.68635762 -6.30184937 3.31340027 C-4.88485042 -0.38139137 -3.78606978 0.00752446 0 0 Z " fill="#010101" transform="translate(6.465911865234375,88.86628723144531)"/>
<path d="M0 0 C0 9.24 0 18.48 0 28 C-9.57 28 -19.14 28 -29 28 C-27.35 26.35 -25.7 24.7 -24 23 C-22.65056269 21.64252149 -21.30114502 20.28502318 -19.95245361 18.92680359 C-17.92050534 16.88141171 -15.88582751 14.83874358 -13.85107422 12.79614258 C-12.77565135 11.71563613 -11.70111942 10.63424225 -10.62744141 9.55200195 C-9.07165268 7.98416567 -7.51272791 6.41950971 -5.953125 4.85546875 C-5.02661133 3.92371826 -4.10009766 2.99196777 -3.14550781 2.03198242 C-1 0 -1 0 0 0 Z " fill="#FAFAFA" transform="translate(241,182)"/>
</svg>
