<svg width="138" height="143" viewBox="0 0 138 143" fill="none" xmlns="http://www.w3.org/2000/svg">
<g clip-path="url(#clip0_3687_1607)">
<path d="M25.7002 17.3103C25.5736 14.7485 27.6219 12.607 30.1826 12.6228L109.713 13.1101C111.723 13.1224 113.635 13.9787 114.982 15.4694L126.255 27.9382C127.445 29.2549 128.104 30.9668 128.104 32.7419V127.682C128.104 131.638 124.897 134.844 120.941 134.844H32.8633C28.9075 134.844 25.7004 131.638 25.7002 127.682V17.3103Z" fill="#F5F5F5" stroke="#868686" stroke-width="0.55814"/>
<path d="M116.435 29.3718C113.738 29.2767 111.664 26.9489 111.876 24.2548L112.598 15.1161C112.661 14.3089 113.654 13.9628 114.206 14.5555L126.869 28.1622C127.434 28.769 126.983 29.7557 126.154 29.7255L116.435 29.3718Z" fill="#868686"/>
<path opacity="0.78" d="M39.1586 35.2934C50.6386 35.1848 94.7079 34.7212 105.836 34.6039C107.24 34.5891 108.388 35.4483 108.374 36.5003C108.36 37.5017 107.291 38.3091 105.955 38.3278L39.3174 39.2592C38.0338 39.2771 36.9355 38.5591 36.7835 37.6027L36.7451 37.3607C36.5714 36.2671 37.6907 35.3073 39.1586 35.2934Z" fill="#A9A9A9"/>
<path opacity="0.78" d="M38.2763 46.9824C38.4678 47.2299 38.8212 47.3823 39.2016 47.3814L84.9515 47.2696C85.5261 47.2682 85.9903 46.9229 85.9962 46.4923L86.0274 44.2327C86.0336 43.7837 85.541 43.4176 84.9421 43.4261L40.4608 44.0567C38.4796 44.0848 37.2789 45.6929 38.2763 46.9824Z" fill="#A9A9A9"/>
<path opacity="0.61" d="M110.504 110.914H43.2848C41.7538 110.914 40.4908 109.528 40.4102 107.76L38.2765 60.9248C38.1898 59.02 39.5018 57.4206 41.1511 57.4206H111.668C113.29 57.4206 114.592 58.97 114.545 60.8452L113.381 107.681C113.336 109.481 112.061 110.914 110.504 110.914Z" fill="#B2B2B2"/>
<path d="M110.504 111.202H43.2849C41.5995 111.202 40.2106 109.696 40.1231 107.773L37.9895 60.9376C37.94 59.8554 38.3126 58.8145 39.0115 58.0821C39.5961 57.4694 40.356 57.132 41.1513 57.132H111.668C112.451 57.132 113.203 57.4606 113.784 58.0572C114.477 58.7688 114.859 59.7876 114.833 60.8521L113.669 107.687C113.62 109.658 112.23 111.202 110.504 111.202ZM41.1513 57.7082C40.5146 57.7082 39.9024 57.9824 39.4274 58.4801C38.8366 59.0994 38.522 59.9855 38.5641 60.9113L40.6977 107.747C40.7713 109.361 41.9077 110.625 43.2849 110.625H110.504C111.915 110.625 113.053 109.328 113.094 107.673L114.257 60.8378C114.28 59.9274 113.957 59.0606 113.372 58.4595C112.9 57.975 112.295 57.7081 111.668 57.7081L41.1513 57.7082Z" fill="#9F9F9F"/>
<path d="M114.617 67.7379H38.6614V68.314H114.617V67.7379Z" fill="#9F9F9F"/>
<path d="M114.041 79.2607H39.0449V79.8368H114.041V79.2607Z" fill="#9F9F9F"/>
<path d="M114.041 91.9362H39.8123V92.5123H114.041V91.9362Z" fill="#9F9F9F"/>
<path d="M113.517 102.279L40.2117 102.998L40.2173 103.575L113.523 102.855L113.517 102.279Z" fill="#9F9F9F"/>
<path d="M60.1438 57.3673H59.5684V110.757H60.1438V57.3673Z" fill="#9F9F9F"/>
<path d="M75.7743 20.1371L43.3431 92.1236L9.82153 76.9831L42.2527 4.9966L75.7743 20.1371Z" fill="#7D7D7D"/>
<path opacity="0.5" d="M47.5275 12.1627L66.7083 20.8259C66.0119 22.3716 66.8383 24.3083 68.5478 25.0804C68.6021 25.1049 68.7329 25.1614 68.7341 25.1586L42.5569 83.2635C42.5581 83.2607 42.4295 83.1994 42.3752 83.1749C40.6657 82.4028 38.7027 83.0248 37.9946 84.5964C37.9842 84.6195 37.9606 84.6433 37.9606 84.6433L19.2117 76.1751C20.4055 73.5253 18.7604 72.4845 17.0509 71.7124C16.9966 71.6878 16.9758 71.7063 16.9746 71.709L43.1519 13.604C43.1507 13.6068 43.1601 13.6136 43.2143 13.6381C44.9239 14.4103 46.8312 13.7084 47.5275 12.1627Z" fill="white"/>
<path d="M42.7227 60.0679C49.1122 60.0679 54.2919 54.8816 54.2919 48.484C54.2919 42.0865 49.1122 36.9002 42.7227 36.9002C36.3333 36.9002 31.1536 42.0865 31.1536 48.484C31.1536 54.8816 36.3333 60.0679 42.7227 60.0679Z" fill="url(#paint0_linear_3687_1607)"/>
<path d="M49.3557 52.7649L48.2405 52.2613C47.6696 53.4042 46.8766 54.4316 46.1507 55.0877C45.8916 55.3221 45.4972 55.3231 45.2279 55.1005L44.317 54.3477C43.9828 54.0716 43.9726 53.5676 44.2896 53.2719C44.9946 52.6141 45.7145 51.734 46.2011 50.654C46.7062 49.5329 46.7032 48.5254 45.9251 48.174C45.223 47.8568 44.5145 48.3144 43.395 49.6839C41.7862 51.6328 40.0992 52.7919 38.1445 51.9089C36.3795 51.1118 35.6143 49.211 36.2638 46.8061L35.1486 46.3024C34.7898 46.1403 34.6301 45.7176 34.792 45.3584L35.0875 44.7023C35.2494 44.343 35.6715 44.1832 36.0303 44.3452L37.0317 44.7974C37.5599 43.7398 38.0971 43.0389 38.5958 42.5153C38.8512 42.2471 39.2727 42.2278 39.5586 42.4633L40.4016 43.1581C40.7268 43.4259 40.7511 43.914 40.4534 44.2122C39.9789 44.6873 39.3887 45.3955 38.9145 46.4482C38.3152 47.7784 38.6944 48.4069 39.1878 48.6297C39.7951 48.9041 40.5721 48.2945 41.8825 46.8054C43.7355 44.6695 45.2225 44.1063 47.0633 44.9378C48.7523 45.7006 49.7055 47.6404 48.9894 50.244L50.2374 50.8077C50.5962 50.9697 50.7559 51.3924 50.5941 51.7517L50.2985 52.4078C50.1366 52.7671 49.7145 52.927 49.3557 52.7649Z" fill="white"/>
<path d="M19.0474 79.0241C19.0292 79.0241 19.0106 79.0204 18.9931 79.0123L12.7078 76.1734C12.6412 76.1435 12.6116 76.065 12.6417 75.9984L20.6499 58.2227C20.6797 58.1562 20.758 58.1259 20.8247 58.1566C20.8914 58.1865 20.921 58.265 20.8908 58.3315L12.937 75.9867L19.1016 78.7712C19.1683 78.8012 19.1979 78.8797 19.1677 78.9462C19.1458 78.9951 19.0977 79.0241 19.0474 79.0241Z" fill="white"/>
<path d="M65.0458 39.0755C65.0276 39.0755 65.0091 39.0717 64.9915 39.0637C64.9248 39.0337 64.8952 38.9553 64.9254 38.8887L72.7797 21.4543L66.174 18.4705C66.1074 18.4405 66.0778 18.3621 66.1079 18.2955C66.1378 18.2288 66.2163 18.1988 66.2826 18.2294L73.009 21.2675C73.0757 21.2975 73.1053 21.3759 73.0751 21.4425L65.1663 38.9975C65.1443 39.0464 65.0962 39.0755 65.0458 39.0755Z" fill="white"/>
<path d="M40.6987 1.37812L8.26685 73.3607L42.0072 88.6012L74.4391 16.6186L40.6987 1.37812Z" fill="#868686"/>
<path d="M46.0422 8.56845L65.223 17.2317C64.5266 18.7774 65.4341 20.7397 67.1436 21.5118C67.1979 21.5364 67.1893 21.5189 67.4111 21.6158L41.2338 79.7207C41.0145 79.6184 41.0295 79.6218 40.9752 79.5973C39.2657 78.8252 37.2599 79.4389 36.5519 81.0105C36.5415 81.0336 36.4753 81.0491 36.4753 81.0491L17.7263 72.5809C18.9201 69.9311 17.2459 68.8661 15.5364 68.094C15.4821 68.0695 15.4322 68.0637 15.4309 68.0665L41.6082 9.9616C41.607 9.96434 41.6455 9.99535 41.6998 10.0198C43.4094 10.792 45.3459 10.1142 46.0422 8.56845Z" fill="#E4E4E4"/>
<path d="M41.2452 56.4554C47.6347 56.4554 52.8144 51.2691 52.8144 44.8715C52.8144 38.4739 47.6347 33.2877 41.2452 33.2877C34.8557 33.2877 29.676 38.4739 29.676 44.8715C29.676 51.2691 34.8557 56.4554 41.2452 56.4554Z" fill="url(#paint1_linear_3687_1607)"/>
<path d="M47.8781 49.1525L46.7629 48.6489C46.192 49.7918 45.399 50.8192 44.6731 51.4754C44.4139 51.7097 44.0196 51.7107 43.7503 51.4882L42.8393 50.7354C42.5052 50.4592 42.495 49.9552 42.812 49.6595C43.517 49.0018 44.2369 48.1216 44.7235 47.0417C45.2285 45.9206 45.2256 44.9131 44.4475 44.5616C43.7454 44.2445 43.0369 44.7019 41.9174 46.0715C40.3086 48.0205 38.6216 49.1795 36.6669 48.2966C34.9019 47.4994 34.1367 45.5987 34.7863 43.1937L33.6711 42.69C33.3122 42.5279 33.1526 42.1052 33.3144 41.7459L33.61 41.09C33.7719 40.7306 34.1939 40.5708 34.5528 40.7329L35.5541 41.1851C36.0823 40.1275 36.6195 39.4265 37.1182 38.903C37.3736 38.6348 37.7951 38.6155 38.0809 38.851L38.924 39.5458C39.2491 39.8137 39.2734 40.3017 38.9758 40.5999C38.5014 41.075 37.9112 41.7832 37.4369 42.8359C36.8376 44.166 37.2168 44.7946 37.7102 45.0174C38.3175 45.2917 39.0945 44.6822 40.4049 43.1931C42.2579 41.0572 43.7449 40.494 45.5858 41.3254C47.2747 42.0883 48.228 44.028 47.5119 46.6317L48.7598 47.1953C49.1186 47.3574 49.2783 47.7801 49.1164 48.1394L48.8209 48.7954C48.659 49.1547 48.2369 49.3146 47.8781 49.1525Z" fill="white"/>
<path d="M17.8152 75.2782C17.797 75.2782 17.7785 75.2744 17.7609 75.2664L11.2552 72.3279C11.1885 72.2979 11.1589 72.2195 11.1891 72.1529L19.0977 54.5979C19.1275 54.5311 19.206 54.5011 19.2725 54.5317C19.3391 54.5617 19.3687 54.6401 19.3386 54.7067L11.4845 72.1411L17.8695 75.0252C17.9362 75.0552 17.9658 75.1336 17.9356 75.2002C17.9137 75.2491 17.8656 75.2782 17.8152 75.2782Z" fill="white"/>
<path d="M63.4936 35.4516C63.4754 35.4516 63.4569 35.4479 63.4393 35.4398C63.3726 35.4098 63.343 35.3314 63.3731 35.2648L71.2272 17.8304L64.842 14.9463C64.7753 14.9163 64.7457 14.8379 64.7758 14.7713C64.8056 14.7047 64.8837 14.6744 64.9506 14.7051L71.4565 17.6437C71.5231 17.6737 71.5527 17.7521 71.5226 17.8187L63.6139 35.3737C63.5921 35.4225 63.5439 35.4516 63.4936 35.4516Z" fill="white"/>
<path d="M80.2366 24.7177L27.6367 83.5627L0.0544434 58.8448L52.6543 -7.62939e-05L80.2366 24.7177Z" fill="#868686"/>
<path d="M55.6072 8.49782L71.2863 22.5486C70.1569 23.8122 70.4058 25.9586 71.8033 27.2109C71.8477 27.2507 71.8192 27.2328 72.0015 27.3921L29.5448 74.8896C29.3665 74.7258 29.3932 74.7456 29.3487 74.7058C27.9513 73.4535 25.8729 73.4258 24.7245 74.7105C24.7076 74.7294 24.6586 74.7168 24.6586 74.7168L9.33241 60.9822C11.2686 58.8162 9.96759 57.2967 8.57011 56.0444C8.52571 56.0046 8.45444 55.9855 8.45239 55.9877L50.9091 8.49023C50.9071 8.49246 50.96 8.53225 51.0044 8.57203C52.4019 9.82434 54.4778 9.76136 55.6072 8.49782Z" fill="#F0F0F0"/>
<path d="M40.0772 53.2737C46.4667 53.2737 51.6464 48.0874 51.6464 41.6898C51.6464 35.2922 46.4667 30.106 40.0772 30.106C33.6877 30.106 28.5081 35.2922 28.5081 41.6898C28.5081 48.0874 33.6877 53.2737 40.0772 53.2737Z" fill="#868686"/>
<path d="M45.1135 47.7738L44.2019 46.9569C43.3133 47.8743 42.2479 48.6144 41.3582 49.0209C41.0405 49.1661 40.6642 49.048 40.4745 48.7545L39.8326 47.7617C39.5971 47.3976 39.7392 46.9139 40.1306 46.7277C41.0009 46.3134 41.9523 45.6915 42.7414 44.8087C43.5606 43.8923 43.8612 42.9308 43.2251 42.3607C42.6512 41.8464 41.8379 42.0687 40.3581 43.0366C38.2372 44.409 36.2797 45.0048 34.6818 43.5729C33.2391 42.2799 33.0818 40.2366 34.4255 38.1397L33.5138 37.3227C33.2204 37.0598 33.1955 36.6086 33.4581 36.315L33.9374 35.7787C34.1999 35.485 34.6505 35.4601 34.9438 35.7229L35.7623 36.4564C36.5845 35.6075 37.3078 35.1014 37.9409 34.7527C38.2652 34.5741 38.6728 34.6829 38.8744 34.9938L39.4691 35.9108C39.6984 36.2643 39.5746 36.737 39.201 36.9314C38.6056 37.2412 37.8296 37.7382 37.0604 38.5988C36.0885 39.6861 36.2607 40.3999 36.664 40.7613C37.1604 41.2062 38.0848 40.8596 39.7827 39.8354C42.1927 38.3583 43.7801 38.2703 45.2849 39.6188C46.6655 40.856 46.9902 42.9933 45.5234 45.2596L46.5436 46.1738C46.8369 46.4367 46.8618 46.8879 46.5993 47.1816L46.1199 47.7179C45.8574 48.0116 45.4068 48.0366 45.1135 47.7738Z" fill="#E2E2E2"/>
<path d="M8.45669 63.7438C8.42521 63.7438 8.39373 63.7327 8.36845 63.71L3.05032 58.9442C2.99601 58.8955 2.99135 58.8118 3.04002 58.7572L16.0286 44.2265C16.0773 44.1718 16.1608 44.1672 16.2153 44.2161C16.2697 44.2649 16.2743 44.3485 16.2256 44.4031L3.32533 58.8353L8.54492 63.5127C8.59923 63.5615 8.6039 63.6451 8.55522 63.6997C8.52915 63.7289 8.493 63.7438 8.45669 63.7438Z" fill="white"/>
<path d="M64.1639 39.3807C64.1325 39.3807 64.101 39.3697 64.0757 39.347C64.0214 39.2982 64.0167 39.2146 64.0654 39.16L76.8045 24.9083L71.5849 20.2308C71.5306 20.182 71.5259 20.0984 71.5746 20.0438C71.6231 19.9892 71.7068 19.9845 71.7613 20.0335L77.0795 24.7993C77.1338 24.848 77.1384 24.9317 77.0898 24.9862L64.2625 39.3365C64.2365 39.3659 64.2003 39.3807 64.1639 39.3807Z" fill="white"/>
<path d="M27.302 57.5898C28.6506 58.7984 28.7654 60.8728 27.5584 62.2232C26.3514 63.5735 24.2796 63.6884 22.931 62.4798C21.5824 61.2713 21.4675 59.1968 22.6746 57.8465C23.8816 56.4962 25.9534 56.3813 27.302 57.5898Z" fill="#868686"/>
<path d="M60.1841 20.8037C61.5327 22.0123 61.6475 24.0867 60.4405 25.4371C59.2334 26.7874 57.1617 26.9023 55.813 25.6938C54.4644 24.4853 54.3497 22.4108 55.5567 21.0605C56.7638 19.7102 58.8355 19.5952 60.1841 20.8037Z" fill="#868686"/>
<path d="M42.3579 124.811C47.8028 124.811 52.2168 120.391 52.2168 114.939C52.2168 109.488 47.8028 105.068 42.3579 105.068C36.913 105.068 32.499 109.488 32.499 114.939C32.499 120.391 36.913 124.811 42.3579 124.811Z" fill="#868686"/>
<path d="M42.358 124.482C47.6219 124.482 51.8891 120.21 51.8891 114.939C51.8891 109.668 47.6219 105.396 42.358 105.396C37.0941 105.396 32.8269 109.668 32.8269 114.939C32.8269 120.21 37.0941 124.482 42.358 124.482Z" fill="#868686"/>
<path opacity="0.58" d="M33.9133 113.009C33.8661 113.019 33.8159 113.019 33.766 113.006C33.5957 112.96 33.4942 112.786 33.5392 112.616C34.4234 109.261 37.0764 106.73 40.4629 106.01C41.0033 105.895 41.5548 105.829 42.1021 105.812C42.2779 105.807 42.4248 105.946 42.4299 106.122C42.4352 106.298 42.2978 106.446 42.1207 106.45C41.6117 106.465 41.0985 106.527 40.5954 106.634C37.4456 107.304 34.978 109.659 34.1555 112.778C34.1238 112.899 34.0273 112.985 33.9133 113.009Z" fill="white"/>
<path opacity="0.78" d="M48.3072 120.81C51.4575 117.656 51.4575 112.542 48.3072 109.388C45.1569 106.233 40.0492 106.233 36.8989 109.388C33.7486 112.542 33.7486 117.656 36.8989 120.81C40.0492 123.965 45.1569 123.965 48.3072 120.81Z" fill="white"/>
<path d="M43.0765 121.137L42.8941 120.278C41.9916 120.432 41.0615 120.409 40.3743 120.267C40.1289 120.217 39.961 119.989 39.9752 119.739L40.0234 118.891C40.041 118.581 40.3278 118.361 40.6332 118.419C41.3125 118.548 42.1264 118.591 42.9568 118.415C43.8187 118.231 44.3994 117.802 44.2722 117.202C44.1573 116.661 43.5923 116.445 42.326 116.378C40.5173 116.273 39.1318 115.788 38.812 114.282C38.5233 112.921 39.2964 111.671 40.9613 111.027L40.7788 110.167C40.7202 109.89 40.8965 109.618 41.1727 109.56L41.6771 109.452C41.9533 109.394 42.2249 109.57 42.2836 109.847L42.4473 110.619C43.2825 110.476 43.9153 110.489 44.4294 110.556C44.6928 110.59 44.8829 110.826 44.8682 111.091L44.8247 111.874C44.808 112.176 44.5364 112.397 44.2378 112.352C43.762 112.279 43.1024 112.237 42.293 112.41C41.2703 112.627 41.0682 113.114 41.1489 113.494C41.2483 113.962 41.9301 114.153 43.3466 114.28C45.367 114.446 46.3235 115.069 46.6246 116.487C46.9009 117.789 46.185 119.165 44.3771 119.855L44.5812 120.817C44.6399 121.094 44.4636 121.366 44.1873 121.425L43.6829 121.532C43.4068 121.591 43.1352 121.414 43.0765 121.137Z" fill="#868686"/>
<path d="M111.744 64.4326C117.893 64.4326 122.878 59.4414 122.878 53.2844C122.878 47.1274 117.893 42.1361 111.744 42.1361C105.595 42.1361 100.61 47.1274 100.61 53.2844C100.61 59.4414 105.595 64.4326 111.744 64.4326Z" fill="#868686"/>
<path d="M111.744 64.062C117.689 64.062 122.508 59.2367 122.508 53.2845C122.508 47.3322 117.689 42.5069 111.744 42.5069C105.799 42.5069 100.98 47.3322 100.98 53.2845C100.98 59.2367 105.799 64.062 111.744 64.062Z" fill="#868686"/>
<path opacity="0.58" d="M102.175 50.9549C102.145 50.9614 102.112 50.9611 102.08 50.9525C101.969 50.9233 101.903 50.81 101.933 50.6996C102.916 46.9679 105.868 44.1517 109.636 43.3501C110.237 43.2222 110.851 43.1483 111.459 43.1307C111.574 43.1273 111.669 43.2172 111.672 43.3317C111.676 43.4459 111.586 43.5424 111.472 43.5445C110.887 43.5615 110.299 43.6324 109.722 43.7552C106.108 44.5241 103.276 47.2256 102.332 50.8052C102.312 50.8833 102.249 50.9392 102.175 50.9549Z" fill="white"/>
<path opacity="0.78" d="M118.463 59.9153C122.021 56.353 122.021 50.5774 118.463 47.0151C114.906 43.4529 109.137 43.4529 105.58 47.0151C102.022 50.5774 102.022 56.353 105.58 59.9153C109.137 63.4775 114.906 63.4775 118.463 59.9153Z" fill="white"/>
<path d="M112.555 60.2845L112.349 59.3137C111.33 59.4883 110.28 59.4621 109.504 59.302C109.227 59.2448 109.037 58.9874 109.053 58.7045L109.107 57.7479C109.127 57.397 109.451 57.1488 109.796 57.2143C110.563 57.3601 111.483 57.4089 112.42 57.2094C113.394 57.0023 114.05 56.5173 113.906 55.84C113.776 55.2288 113.138 54.9848 111.708 54.9092C109.665 54.7913 108.1 54.2436 107.739 52.542C107.413 51.0056 108.286 49.5939 110.167 48.8658L109.961 47.895C109.894 47.5826 110.093 47.2756 110.405 47.2092L110.975 47.088C111.287 47.0216 111.594 47.221 111.66 47.5334L111.845 48.405C112.788 48.2436 113.503 48.2588 114.083 48.334C114.381 48.3724 114.596 48.6388 114.579 48.9387L114.53 49.8231C114.511 50.1642 114.204 50.414 113.867 50.3623C113.33 50.2798 112.585 50.2333 111.671 50.4278C110.516 50.6736 110.287 51.2228 110.379 51.6524C110.491 52.181 111.261 52.397 112.861 52.5402C115.142 52.7281 116.222 53.4306 116.563 55.0331C116.875 56.5034 116.066 58.0567 114.024 58.8365L114.255 59.9229C114.321 60.2353 114.122 60.5423 113.81 60.6087L113.24 60.7299C112.928 60.7962 112.622 60.5968 112.555 60.2845Z" fill="#868686"/>
<path d="M119.95 141.539C129.589 141.539 137.404 133.79 137.404 124.232C137.404 114.673 129.589 106.924 119.95 106.924C110.31 106.924 102.495 114.673 102.495 124.232C102.495 133.79 110.31 141.539 119.95 141.539Z" fill="#868686"/>
<path fill-rule="evenodd" clip-rule="evenodd" d="M118.749 122.922H112.241C111.588 122.922 111.058 123.444 111.058 124.086C111.058 124.729 111.588 125.251 112.241 125.251H118.749V131.656C118.749 132.299 119.279 132.821 119.932 132.821C120.585 132.821 121.115 132.299 121.115 131.656V125.251H127.622C128.275 125.251 128.805 124.729 128.805 124.086C128.805 123.444 128.275 122.922 127.622 122.922H121.115V116.517C121.115 115.874 120.585 115.352 119.932 115.352C119.279 115.352 118.749 115.874 118.749 116.517V122.922Z" fill="white"/>
</g>
<defs>
<linearGradient id="paint0_linear_3687_1607" x1="35.5414" y1="44.5436" x2="125.329" y2="93.6854" gradientUnits="userSpaceOnUse">
<stop stop-color="#50E7B7"/>
<stop offset="0.9964" stop-color="#323992"/>
</linearGradient>
<linearGradient id="paint1_linear_3687_1607" x1="34.0638" y1="40.9311" x2="123.852" y2="90.073" gradientUnits="userSpaceOnUse">
<stop stop-color="#50E7B7"/>
<stop offset="0.9964" stop-color="#323992"/>
</linearGradient>
<clipPath id="clip0_3687_1607">
<rect width="137.765" height="142.174" fill="white" transform="translate(0.0544434)"/>
</clipPath>
</defs>
</svg>
